<?xml version="1.0" standalone="no"?>
 <!DOCTYPE svg PUBLIC "-//W3C//DTD SVG 1.1//EN" 
 "http://www.w3.org/Graphics/SVG/1.1/DTD/svg11.dtd"> 
<svg
  xmlns:svg="http://www.w3.org/2000/svg"
  xmlns="http://www.w3.org/2000/svg"
  xmlns:xlink="http://www.w3.org/1999/xlink"
  version="1.1"
  width="13.200380cm" height="9.999980cm" viewBox="0 0 51970 39370">
<title>SVG Picture created as Power Supply.svg date 2022/09/14 02:35:55 </title>
  <desc>Picture generated by Eeschema-SVG </desc>
<g style="fill:#000000; fill-opacity:1.000000;stroke:#000000; stroke-opacity:1.000000;
stroke-linecap:round; stroke-linejoin:round;"
 transform="translate(0 0) scale(1 1)">
</g>
<g style="fill:#840000; fill-opacity:0.0; 
stroke:#840000; stroke-width:0.000000; stroke-opacity:1; 
stroke-linecap:round; stroke-linejoin:round;">
</g>
<g style="fill:#840000; fill-opacity:0.0; 
stroke:#840000; stroke-width:60.000000; stroke-opacity:1; 
stroke-linecap:round; stroke-linejoin:round;">
<rect x="4725.905512" y="22047.165354" width="42519.685039" height="12598.425197" rx="0.000000" />
<rect x="3937.007874" y="3937.007874" width="44095.984252" height="31495.984252" rx="0.000000" />
<rect x="4724.409449" y="4724.409449" width="42521.181102" height="29921.181102" rx="0.000000" />
<path d="M23622 4724
L23622 3937
" />
<path d="M43307 4724
L43307 3937
" />
<text x="13779.527559" y="4586.614173"
textLength="549.960630" font-size="682.401575" lengthAdjust="spacingAndGlyphs"
text-anchor="start" opacity="0">1</text>
<g class="stroked-text"><desc>1</desc>
<path d="M14199 4562
L13907 4562
" />
<path d="M14053 4562
L14053 4050
L14004 4123
L13955 4172
L13907 4196
" />
</g><text x="33464.566929" y="4586.614173"
textLength="547.440945" font-size="682.401575" lengthAdjust="spacingAndGlyphs"
text-anchor="start" opacity="0">2</text>
<g class="stroked-text"><desc>2</desc>
<path d="M33592 4099
L33616 4074
L33665 4050
L33787 4050
L33835 4074
L33860 4099
L33884 4147
L33884 4196
L33860 4269
L33567 4562
L33884 4562
" />
</g><path d="M23622 34645
L23622 35432
" />
<path d="M43307 34645
L43307 35432
" />
<text x="13779.527559" y="35295.196850"
textLength="547.440945" font-size="682.401575" lengthAdjust="spacingAndGlyphs"
text-anchor="start" opacity="0">1</text>
<g class="stroked-text"><desc>1</desc>
<path d="M14199 35270
L13907 35270
" />
<path d="M14053 35270
L14053 34758
L14004 34832
L13955 34880
L13907 34905
" />
</g><text x="33464.566929" y="35295.196850"
textLength="547.440945" font-size="682.401575" lengthAdjust="spacingAndGlyphs"
text-anchor="start" opacity="0">2</text>
<g class="stroked-text"><desc>2</desc>
<path d="M33592 34807
L33616 34783
L33665 34758
L33787 34758
L33835 34783
L33860 34807
L33884 34856
L33884 34905
L33860 34978
L33567 35270
L33884 35270
" />
</g><path d="M3937 23622
L4724 23622
" />
<text x="4330.708661" y="14035.433071"
textLength="498.700787" font-size="682.401575" lengthAdjust="spacingAndGlyphs"
text-anchor="middle" opacity="0">A</text>
<g class="stroked-text"><desc>A</desc>
<path d="M4208 13864
L4452 13864
" />
<path d="M4160 14011
L4330 13499
L4501 14011
" />
</g><text x="4330.708661" y="33720.472441"
textLength="571.811024" font-size="682.401575" lengthAdjust="spacingAndGlyphs"
text-anchor="middle" opacity="0">B</text>
<g class="stroked-text"><desc>B</desc>
<path d="M4367 33427
L4440 33452
L4464 33476
L4489 33525
L4489 33598
L4464 33647
L4440 33671
L4391 33696
L4196 33696
L4196 33184
L4367 33184
L4415 33208
L4440 33233
L4464 33281
L4464 33330
L4440 33379
L4415 33403
L4367 33427
L4196 33427
" />
</g><path d="M48032 23622
L47245 23622
" />
<text x="47639.291339" y="14035.433071"
textLength="498.700787" font-size="682.401575" lengthAdjust="spacingAndGlyphs"
text-anchor="middle" opacity="0">A</text>
<g class="stroked-text"><desc>A</desc>
<path d="M47517 13864
L47761 13864
" />
<path d="M47468 14011
L47639 13499
L47809 14011
" />
</g><text x="47639.291339" y="33720.472441"
textLength="571.811024" font-size="682.401575" lengthAdjust="spacingAndGlyphs"
text-anchor="middle" opacity="0">B</text>
<g class="stroked-text"><desc>B</desc>
<path d="M47675 33427
L47748 33452
L47773 33476
L47797 33525
L47797 33598
L47773 33647
L47748 33671
L47700 33696
L47505 33696
L47505 33184
L47675 33184
L47724 33208
L47748 33233
L47773 33281
L47773 33330
L47748 33379
L47724 33403
L47675 33427
L47505 33427
" />
</g><text x="13781.023622" y="33011.732283"
textLength="8721.417323" font-size="787.401575" lengthAdjust="spacingAndGlyphs"
text-anchor="start" opacity="0">Date: 2022-09-14</text>
<g class="stroked-text"><desc>Date: 2022-09-14</desc>
<path d="M13951 32983
L13951 32393
L14092 32393
L14176 32421
L14232 32477
L14260 32533
L14289 32646
L14289 32730
L14260 32842
L14232 32899
L14176 32955
L14092 32983
L13951 32983
" />
<path d="M14795 32983
L14795 32674
L14767 32618
L14710 32589
L14598 32589
L14542 32618
" />
<path d="M14795 32955
L14739 32983
L14598 32983
L14542 32955
L14514 32899
L14514 32842
L14542 32786
L14598 32758
L14739 32758
L14795 32730
" />
<path d="M14992 32589
L15217 32589
" />
<path d="M15076 32393
L15076 32899
L15104 32955
L15160 32983
L15217 32983
" />
<path d="M15638 32955
L15582 32983
L15470 32983
L15413 32955
L15385 32899
L15385 32674
L15413 32618
L15470 32589
L15582 32589
L15638 32618
L15667 32674
L15667 32730
L15385 32786
" />
<path d="M15920 32927
L15948 32955
L15920 32983
L15892 32955
L15920 32927
L15920 32983
" />
<path d="M15920 32618
L15948 32646
L15920 32674
L15892 32646
L15920 32618
L15920 32674
" />
<path d="M16623 32449
L16651 32421
L16707 32393
L16848 32393
L16904 32421
L16932 32449
L16960 32505
L16960 32561
L16932 32646
L16595 32983
L16960 32983
" />
<path d="M17326 32393
L17382 32393
L17438 32421
L17466 32449
L17494 32505
L17523 32618
L17523 32758
L17494 32871
L17466 32927
L17438 32955
L17382 32983
L17326 32983
L17269 32955
L17241 32927
L17213 32871
L17185 32758
L17185 32618
L17213 32505
L17241 32449
L17269 32421
L17326 32393
" />
<path d="M17748 32449
L17776 32421
L17832 32393
L17972 32393
L18029 32421
L18057 32449
L18085 32505
L18085 32561
L18057 32646
L17719 32983
L18085 32983
" />
<path d="M18310 32449
L18338 32421
L18394 32393
L18535 32393
L18591 32421
L18619 32449
L18647 32505
L18647 32561
L18619 32646
L18282 32983
L18647 32983
" />
<path d="M18900 32758
L19350 32758
" />
<path d="M19744 32393
L19800 32393
L19857 32421
L19885 32449
L19913 32505
L19941 32618
L19941 32758
L19913 32871
L19885 32927
L19857 32955
L19800 32983
L19744 32983
L19688 32955
L19660 32927
L19632 32871
L19604 32758
L19604 32618
L19632 32505
L19660 32449
L19688 32421
L19744 32393
" />
<path d="M20222 32983
L20335 32983
L20391 32955
L20419 32927
L20475 32842
L20503 32730
L20503 32505
L20475 32449
L20447 32421
L20391 32393
L20278 32393
L20222 32421
L20194 32449
L20166 32505
L20166 32646
L20194 32702
L20222 32730
L20278 32758
L20391 32758
L20447 32730
L20475 32702
L20503 32646
" />
<path d="M20757 32758
L21206 32758
" />
<path d="M21797 32983
L21460 32983
" />
<path d="M21628 32983
L21628 32393
L21572 32477
L21516 32533
L21460 32561
" />
<path d="M22303 32589
L22303 32983
" />
<path d="M22163 32364
L22022 32786
L22388 32786
" />
</g><path d="M4725 33267
L47245 33267
" />
<text x="5119.606299" y="34114.094488"
textLength="12236.614173" font-size="787.401575" lengthAdjust="spacingAndGlyphs"
text-anchor="start" opacity="0">KiCad E.D.A.  kicad (6.0.7)</text>
<g class="stroked-text"><desc>KiCad E.D.A.  kicad (6.0.7)</desc>
<path d="M5290 34085
L5290 33495
" />
<path d="M5627 34085
L5374 33748
" />
<path d="M5627 33495
L5290 33832
" />
<path d="M5880 34085
L5880 33692
" />
<path d="M5880 33495
L5852 33523
L5880 33551
L5908 33523
L5880 33495
L5880 33551
" />
<path d="M6499 34029
L6471 34057
L6386 34085
L6330 34085
L6246 34057
L6190 34001
L6161 33945
L6133 33832
L6133 33748
L6161 33636
L6190 33579
L6246 33523
L6330 33495
L6386 33495
L6471 33523
L6499 33551
" />
<path d="M7005 34085
L7005 33776
L6977 33720
L6921 33692
L6808 33692
L6752 33720
" />
<path d="M7005 34057
L6949 34085
L6808 34085
L6752 34057
L6724 34001
L6724 33945
L6752 33889
L6808 33860
L6949 33860
L7005 33832
" />
<path d="M7539 34085
L7539 33495
" />
<path d="M7539 34057
L7483 34085
L7371 34085
L7314 34057
L7286 34029
L7258 33973
L7258 33804
L7286 33748
L7314 33720
L7371 33692
L7483 33692
L7539 33720
" />
<path d="M8271 33776
L8467 33776
" />
<path d="M8552 34085
L8271 34085
L8271 33495
L8552 33495
" />
<path d="M8805 34029
L8833 34057
L8805 34085
L8777 34057
L8805 34029
L8805 34085
" />
<path d="M9086 34085
L9086 33495
L9227 33495
L9311 33523
L9367 33579
L9395 33636
L9424 33748
L9424 33832
L9395 33945
L9367 34001
L9311 34057
L9227 34085
L9086 34085
" />
<path d="M9677 34029
L9705 34057
L9677 34085
L9649 34057
L9677 34029
L9677 34085
" />
<path d="M9930 33917
L10211 33917
" />
<path d="M9874 34085
L10070 33495
L10267 34085
" />
<path d="M10464 34029
L10492 34057
L10464 34085
L10436 34057
L10464 34029
L10464 34085
" />
<path d="M11645 34085
L11645 33495
" />
<path d="M11701 33860
L11870 34085
" />
<path d="M11870 33692
L11645 33917
" />
<path d="M12123 34085
L12123 33692
" />
<path d="M12123 33495
L12095 33523
L12123 33551
L12151 33523
L12123 33495
L12123 33551
" />
<path d="M12658 34057
L12601 34085
L12489 34085
L12433 34057
L12404 34029
L12376 33973
L12376 33804
L12404 33748
L12433 33720
L12489 33692
L12601 33692
L12658 33720
" />
<path d="M13164 34085
L13164 33776
L13136 33720
L13079 33692
L12967 33692
L12911 33720
" />
<path d="M13164 34057
L13107 34085
L12967 34085
L12911 34057
L12882 34001
L12882 33945
L12911 33889
L12967 33860
L13107 33860
L13164 33832
" />
<path d="M13698 34085
L13698 33495
" />
<path d="M13698 34057
L13642 34085
L13529 34085
L13473 34057
L13445 34029
L13417 33973
L13417 33804
L13445 33748
L13473 33720
L13529 33692
L13642 33692
L13698 33720
" />
<path d="M14598 34310
L14570 34282
L14514 34198
L14485 34142
L14457 34057
L14429 33917
L14429 33804
L14457 33664
L14485 33579
L14514 33523
L14570 33439
L14598 33411
" />
<path d="M15076 33495
L14963 33495
L14907 33523
L14879 33551
L14823 33636
L14795 33748
L14795 33973
L14823 34029
L14851 34057
L14907 34085
L15020 34085
L15076 34057
L15104 34029
L15132 33973
L15132 33832
L15104 33776
L15076 33748
L15020 33720
L14907 33720
L14851 33748
L14823 33776
L14795 33832
" />
<path d="M15385 34029
L15413 34057
L15385 34085
L15357 34057
L15385 34029
L15385 34085
" />
<path d="M15779 33495
L15835 33495
L15892 33523
L15920 33551
L15948 33607
L15976 33720
L15976 33860
L15948 33973
L15920 34029
L15892 34057
L15835 34085
L15779 34085
L15723 34057
L15695 34029
L15667 33973
L15638 33860
L15638 33720
L15667 33607
L15695 33551
L15723 33523
L15779 33495
" />
<path d="M16229 34029
L16257 34057
L16229 34085
L16201 34057
L16229 34029
L16229 34085
" />
<path d="M16454 33495
L16848 33495
L16595 34085
" />
<path d="M17016 34310
L17044 34282
L17101 34198
L17129 34142
L17157 34057
L17185 33917
L17185 33804
L17157 33664
L17129 33579
L17101 33523
L17044 33439
L17016 33411
" />
</g><path d="M4725 32086
L47245 32086
" />
</g>
<g style="fill:#840000; fill-opacity:0.0; 
stroke:#840000; stroke-width:118.110236; stroke-opacity:1; 
stroke-linecap:round; stroke-linejoin:round;">
<text x="38584.173228" y="33011.732283"
textLength="2900.275591" font-size="787.401575" lengthAdjust="spacingAndGlyphs"
text-anchor="start" opacity="0">Rev: 1</text>
<g class="stroked-text"><desc>Rev: 1</desc>
<path d="M39138 32983
L38942 32702
" />
<path d="M38801 32983
L38801 32393
L39026 32393
L39082 32421
L39110 32449
L39138 32505
L39138 32589
L39110 32646
L39082 32674
L39026 32702
L38801 32702
" />
<path d="M39617 32955
L39560 32983
L39448 32983
L39392 32955
L39363 32899
L39363 32674
L39392 32618
L39448 32589
L39560 32589
L39617 32618
L39645 32674
L39645 32730
L39363 32786
" />
<path d="M39842 32589
L39982 32983
L40123 32589
" />
<path d="M40348 32927
L40376 32955
L40348 32983
L40320 32955
L40348 32927
L40348 32983
" />
<path d="M40348 32618
L40376 32646
L40348 32674
L40320 32646
L40348 32618
L40348 32674
" />
<path d="M41388 32983
L41051 32983
" />
<path d="M41220 32983
L41220 32393
L41163 32477
L41107 32533
L41051 32561
" />
</g></g>
<g style="fill:#840000; fill-opacity:0.0; 
stroke:#840000; stroke-width:60.000000; stroke-opacity:1; 
stroke-linecap:round; stroke-linejoin:round;">
<text x="5119.606299" y="33011.732283"
textLength="4681.102362" font-size="787.401575" lengthAdjust="spacingAndGlyphs"
text-anchor="start" opacity="0">Size: User</text>
<g class="stroked-text"><desc>Size: User</desc>
<path d="M5262 32955
L5346 32983
L5487 32983
L5543 32955
L5571 32927
L5599 32871
L5599 32814
L5571 32758
L5543 32730
L5487 32702
L5374 32674
L5318 32646
L5290 32618
L5262 32561
L5262 32505
L5290 32449
L5318 32421
L5374 32393
L5515 32393
L5599 32421
" />
<path d="M5852 32983
L5852 32589
" />
<path d="M5852 32393
L5824 32421
L5852 32449
L5880 32421
L5852 32393
L5852 32449
" />
<path d="M6077 32589
L6386 32589
L6077 32983
L6386 32983
" />
<path d="M6836 32955
L6780 32983
L6668 32983
L6611 32955
L6583 32899
L6583 32674
L6611 32618
L6668 32589
L6780 32589
L6836 32618
L6865 32674
L6865 32730
L6583 32786
" />
<path d="M7118 32927
L7146 32955
L7118 32983
L7089 32955
L7118 32927
L7118 32983
" />
<path d="M7118 32618
L7146 32646
L7118 32674
L7089 32646
L7118 32618
L7118 32674
" />
<path d="M7849 32393
L7849 32871
L7877 32927
L7905 32955
L7961 32983
L8074 32983
L8130 32955
L8158 32927
L8186 32871
L8186 32393
" />
<path d="M8439 32955
L8496 32983
L8608 32983
L8664 32955
L8692 32899
L8692 32871
L8664 32814
L8608 32786
L8524 32786
L8467 32758
L8439 32702
L8439 32674
L8467 32618
L8524 32589
L8608 32589
L8664 32618
" />
<path d="M9170 32955
L9114 32983
L9002 32983
L8945 32955
L8917 32899
L8917 32674
L8945 32618
L9002 32589
L9114 32589
L9170 32618
L9199 32674
L9199 32730
L8917 32786
" />
<path d="M9452 32983
L9452 32589
" />
<path d="M9452 32702
L9480 32646
L9508 32618
L9564 32589
L9620 32589
" />
</g><text x="38584.173228" y="34114.094488"
textLength="3350.196850" font-size="787.401575" lengthAdjust="spacingAndGlyphs"
text-anchor="start" opacity="0">Id: 1/1</text>
<g class="stroked-text"><desc>Id: 1/1</desc>
<path d="M38754 34085
L38754 33495
" />
<path d="M39289 34085
L39289 33495
" />
<path d="M39289 34057
L39232 34085
L39120 34085
L39064 34057
L39035 34029
L39007 33973
L39007 33804
L39035 33748
L39064 33720
L39120 33692
L39232 33692
L39289 33720
" />
<path d="M39570 34029
L39598 34057
L39570 34085
L39542 34057
L39570 34029
L39570 34085
" />
<path d="M39570 33720
L39598 33748
L39570 33776
L39542 33748
L39570 33720
L39570 33776
" />
<path d="M40610 34085
L40273 34085
" />
<path d="M40442 34085
L40442 33495
L40385 33579
L40329 33636
L40273 33664
" />
<path d="M41285 33467
L40779 34226
" />
<path d="M41791 34085
L41454 34085
" />
<path d="M41623 34085
L41623 33495
L41566 33579
L41510 33636
L41454 33664
" />
</g><path d="M4725 30511
L47245 30511
" />
</g>
<g style="fill:#840000; fill-opacity:0.0; 
stroke:#840000; stroke-width:157.480315; stroke-opacity:1; 
stroke-linecap:round; stroke-linejoin:round;">
<text x="5119.606299" y="31614.094488"
textLength="13716.771654" font-size="1049.842520" lengthAdjust="spacingAndGlyphs"
text-anchor="start" opacity="0">Title: 5V Power Supply</text>
<g class="stroked-text"><desc>Title: 5V Power Supply</desc>
<path d="M5400 30789
L5850 30789
" />
<path d="M5526 31576
L5625 30789
" />
<path d="M6014 31576
L6079 31051
" />
<path d="M6112 30789
L6070 30826
L6103 30864
L6145 30826
L6112 30789
L6103 30864
" />
<path d="M6342 31051
L6642 31051
" />
<path d="M6487 30789
L6403 31464
L6431 31539
L6501 31576
L6576 31576
" />
<path d="M6951 31576
L6881 31539
L6852 31464
L6937 30789
" />
<path d="M7556 31539
L7476 31576
L7326 31576
L7256 31539
L7227 31464
L7265 31164
L7312 31089
L7392 31051
L7541 31051
L7612 31089
L7640 31164
L7631 31239
L7246 31314
" />
<path d="M7935 31501
L7968 31539
L7926 31576
L7893 31539
L7935 31501
L7926 31576
" />
<path d="M7987 31089
L8020 31126
L7977 31164
L7945 31126
L7987 31089
L7977 31164
" />
<path d="M9374 30789
L8999 30789
L8915 31164
L8957 31126
L9037 31089
L9224 31089
L9294 31126
L9327 31164
L9355 31239
L9332 31426
L9285 31501
L9243 31539
L9163 31576
L8976 31576
L8905 31539
L8873 31501
" />
<path d="M9637 30789
L9801 31576
L10161 30789
" />
<path d="M10925 31576
L11024 30789
L11324 30789
L11394 30826
L11427 30864
L11455 30939
L11441 31051
L11394 31126
L11352 31164
L11272 31201
L10972 31201
" />
<path d="M11825 31576
L11755 31539
L11722 31501
L11694 31426
L11722 31201
L11769 31126
L11811 31089
L11891 31051
L12003 31051
L12074 31089
L12107 31126
L12135 31201
L12107 31426
L12060 31501
L12017 31539
L11938 31576
L11825 31576
" />
<path d="M12416 31051
L12500 31576
L12697 31201
L12800 31576
L13016 31051
" />
<path d="M13555 31539
L13475 31576
L13325 31576
L13255 31539
L13227 31464
L13264 31164
L13311 31089
L13391 31051
L13541 31051
L13611 31089
L13639 31164
L13630 31239
L13245 31314
" />
<path d="M13925 31576
L13991 31051
" />
<path d="M13972 31201
L14019 31126
L14061 31089
L14141 31051
L14216 31051
" />
<path d="M14980 31539
L15087 31576
L15275 31576
L15355 31539
L15397 31501
L15444 31426
L15453 31351
L15425 31276
L15392 31239
L15322 31201
L15176 31164
L15106 31126
L15073 31089
L15045 31014
L15055 30939
L15101 30864
L15144 30826
L15223 30789
L15411 30789
L15519 30826
" />
<path d="M16165 31051
L16100 31576
" />
<path d="M15828 31051
L15776 31464
L15805 31539
L15875 31576
L15987 31576
L16067 31539
L16109 31501
" />
<path d="M16540 31051
L16442 31839
" />
<path d="M16536 31089
L16615 31051
L16765 31051
L16836 31089
L16868 31126
L16897 31201
L16868 31426
L16822 31501
L16779 31539
L16700 31576
L16550 31576
L16479 31539
" />
<path d="M17253 31051
L17154 31839
" />
<path d="M17248 31089
L17328 31051
L17478 31051
L17548 31089
L17581 31126
L17609 31201
L17581 31426
L17534 31501
L17492 31539
L17412 31576
L17262 31576
L17192 31539
" />
<path d="M18012 31576
L17942 31539
L17914 31464
L17998 30789
" />
<path d="M18303 31051
L18425 31576
" />
<path d="M18678 31051
L18425 31576
L18326 31764
L18284 31801
L18204 31839
" />
</g></g>
<g style="fill:#840000; fill-opacity:0.0; 
stroke:#840000; stroke-width:60.000000; stroke-opacity:1; 
stroke-linecap:round; stroke-linejoin:round;">
<text x="5119.606299" y="30098.346457"
textLength="13112.480315" font-size="787.401575" lengthAdjust="spacingAndGlyphs"
text-anchor="start" opacity="0">File: Power Supply.kicad_sch</text>
<g class="stroked-text"><desc>File: Power Supply.kicad_sch</desc>
<path d="M5487 29760
L5290 29760
" />
<path d="M5290 30070
L5290 29479
L5571 29479
" />
<path d="M5796 30070
L5796 29676
" />
<path d="M5796 29479
L5768 29507
L5796 29535
L5824 29507
L5796 29479
L5796 29535
" />
<path d="M6161 30070
L6105 30042
L6077 29985
L6077 29479
" />
<path d="M6611 30042
L6555 30070
L6443 30070
L6386 30042
L6358 29985
L6358 29760
L6386 29704
L6443 29676
L6555 29676
L6611 29704
L6640 29760
L6640 29817
L6358 29873
" />
<path d="M6893 30013
L6921 30042
L6893 30070
L6865 30042
L6893 30013
L6893 30070
" />
<path d="M6893 29704
L6921 29732
L6893 29760
L6865 29732
L6893 29704
L6893 29760
" />
<path d="M7624 30070
L7624 29479
L7849 29479
L7905 29507
L7933 29535
L7961 29592
L7961 29676
L7933 29732
L7905 29760
L7849 29788
L7624 29788
" />
<path d="M8299 30070
L8242 30042
L8214 30013
L8186 29957
L8186 29788
L8214 29732
L8242 29704
L8299 29676
L8383 29676
L8439 29704
L8467 29732
L8496 29788
L8496 29957
L8467 30013
L8439 30042
L8383 30070
L8299 30070
" />
<path d="M8692 29676
L8805 30070
L8917 29788
L9030 30070
L9142 29676
" />
<path d="M9592 30042
L9536 30070
L9424 30070
L9367 30042
L9339 29985
L9339 29760
L9367 29704
L9424 29676
L9536 29676
L9592 29704
L9620 29760
L9620 29817
L9339 29873
" />
<path d="M9873 30070
L9873 29676
" />
<path d="M9873 29788
L9902 29732
L9930 29704
L9986 29676
L10042 29676
" />
<path d="M10661 30042
L10745 30070
L10886 30070
L10942 30042
L10970 30013
L10998 29957
L10998 29901
L10970 29845
L10942 29817
L10886 29788
L10773 29760
L10717 29732
L10689 29704
L10661 29648
L10661 29592
L10689 29535
L10717 29507
L10773 29479
L10914 29479
L10998 29507
" />
<path d="M11505 29676
L11505 30070
" />
<path d="M11251 29676
L11251 29985
L11280 30042
L11336 30070
L11420 30070
L11476 30042
L11505 30013
" />
<path d="M11786 29676
L11786 30267
" />
<path d="M11786 29704
L11842 29676
L11955 29676
L12011 29704
L12039 29732
L12067 29788
L12067 29957
L12039 30013
L12011 30042
L11955 30070
L11842 30070
L11786 30042
" />
<path d="M12320 29676
L12320 30267
" />
<path d="M12320 29704
L12376 29676
L12489 29676
L12545 29704
L12573 29732
L12601 29788
L12601 29957
L12573 30013
L12545 30042
L12489 30070
L12376 30070
L12320 30042
" />
<path d="M12939 30070
L12882 30042
L12854 29985
L12854 29479
" />
<path d="M13107 29676
L13248 30070
" />
<path d="M13389 29676
L13248 30070
L13192 30210
L13164 30238
L13107 30267
" />
<path d="M13614 30013
L13642 30042
L13614 30070
L13586 30042
L13614 30013
L13614 30070
" />
<path d="M13895 30070
L13895 29479
" />
<path d="M13951 29845
L14120 30070
" />
<path d="M14120 29676
L13895 29901
" />
<path d="M14373 30070
L14373 29676
" />
<path d="M14373 29479
L14345 29507
L14373 29535
L14401 29507
L14373 29479
L14373 29535
" />
<path d="M14907 30042
L14851 30070
L14739 30070
L14682 30042
L14654 30013
L14626 29957
L14626 29788
L14654 29732
L14682 29704
L14739 29676
L14851 29676
L14907 29704
" />
<path d="M15413 30070
L15413 29760
L15385 29704
L15329 29676
L15217 29676
L15160 29704
" />
<path d="M15413 30042
L15357 30070
L15217 30070
L15160 30042
L15132 29985
L15132 29929
L15160 29873
L15217 29845
L15357 29845
L15413 29817
" />
<path d="M15948 30070
L15948 29479
" />
<path d="M15948 30042
L15892 30070
L15779 30070
L15723 30042
L15695 30013
L15667 29957
L15667 29788
L15695 29732
L15723 29704
L15779 29676
L15892 29676
L15948 29704
" />
<path d="M16088 30126
L16538 30126
" />
<path d="M16651 30042
L16707 30070
L16820 30070
L16876 30042
L16904 29985
L16904 29957
L16876 29901
L16820 29873
L16735 29873
L16679 29845
L16651 29788
L16651 29760
L16679 29704
L16735 29676
L16820 29676
L16876 29704
" />
<path d="M17410 30042
L17354 30070
L17241 30070
L17185 30042
L17157 30013
L17129 29957
L17129 29788
L17157 29732
L17185 29704
L17241 29676
L17354 29676
L17410 29704
" />
<path d="M17663 30070
L17663 29479
" />
<path d="M17916 30070
L17916 29760
L17888 29704
L17832 29676
L17748 29676
L17691 29704
L17663 29732
" />
</g><path d="M4725 28149
L47245 28149
" />
<text x="5119.606299" y="29035.354331"
textLength="3856.417323" font-size="787.401575" lengthAdjust="spacingAndGlyphs"
text-anchor="start" opacity="0">Sheet: /</text>
<g class="stroked-text"><desc>Sheet: /</desc>
<path d="M5262 28979
L5346 29007
L5487 29007
L5543 28979
L5571 28950
L5599 28894
L5599 28838
L5571 28782
L5543 28754
L5487 28725
L5374 28697
L5318 28669
L5290 28641
L5262 28585
L5262 28529
L5290 28472
L5318 28444
L5374 28416
L5515 28416
L5599 28444
" />
<path d="M5852 29007
L5852 28416
" />
<path d="M6105 29007
L6105 28697
L6077 28641
L6021 28613
L5937 28613
L5880 28641
L5852 28669
" />
<path d="M6611 28979
L6555 29007
L6443 29007
L6386 28979
L6358 28922
L6358 28697
L6386 28641
L6443 28613
L6555 28613
L6611 28641
L6640 28697
L6640 28754
L6358 28810
" />
<path d="M7118 28979
L7061 29007
L6949 29007
L6893 28979
L6865 28922
L6865 28697
L6893 28641
L6949 28613
L7061 28613
L7118 28641
L7146 28697
L7146 28754
L6865 28810
" />
<path d="M7314 28613
L7539 28613
" />
<path d="M7399 28416
L7399 28922
L7427 28979
L7483 29007
L7539 29007
" />
<path d="M7736 28950
L7764 28979
L7736 29007
L7708 28979
L7736 28950
L7736 29007
" />
<path d="M7736 28641
L7764 28669
L7736 28697
L7708 28669
L7736 28641
L7736 28697
" />
<path d="M8889 28388
L8383 29147
" />
</g></g>
<g style="fill:#840000; fill-opacity:0.0; 
stroke:#840000; stroke-width:118.110236; stroke-opacity:1; 
stroke-linecap:round; stroke-linejoin:round;">
<text x="5119.606299" y="27854.251969"
textLength="60.000000" font-size="787.401575" lengthAdjust="spacingAndGlyphs"
text-anchor="start" opacity="0"></text>
<g class="stroked-text"><desc></desc>
</g></g>
<g style="fill:#840000; fill-opacity:0.0; 
stroke:#840000; stroke-width:60.000000; stroke-opacity:1; 
stroke-linecap:round; stroke-linejoin:round;">
<text x="5119.606299" y="26673.149606"
textLength="118.110236" font-size="787.401575" lengthAdjust="spacingAndGlyphs"
text-anchor="start" opacity="0"></text>
<g class="stroked-text"><desc></desc>
</g><text x="5119.606299" y="25492.047244"
textLength="60.000000" font-size="787.401575" lengthAdjust="spacingAndGlyphs"
text-anchor="start" opacity="0"></text>
<g class="stroked-text"><desc></desc>
</g><text x="5119.606299" y="24310.944882"
textLength="60.000000" font-size="787.401575" lengthAdjust="spacingAndGlyphs"
text-anchor="start" opacity="0"></text>
<g class="stroked-text"><desc></desc>
</g><text x="5119.606299" y="23129.842520"
textLength="60.000000" font-size="787.401575" lengthAdjust="spacingAndGlyphs"
text-anchor="start" opacity="0"></text>
<g class="stroked-text"><desc></desc>
</g><path d="M12599 32086
L12599 33267
" />
<path d="M37796 32086
L37796 34645
" />
<g >
<path style="fill:#840000; fill-opacity:0.0; 
stroke:#840000; stroke-width:60.000000; stroke-opacity:1; 
stroke-linecap:round; stroke-linejoin:round;fill:none"
d="M 11000.000000,15500.000000
10500.000000,15500.000000
10500.000000,16000.000000
10000.000000,15500.000000
10500.000000,15000.000000
10500.000000,15500.000000
" /> 
</g>
<g style="fill:#006464; fill-opacity:0.0; 
stroke:#006464; stroke-width:60.000000; stroke-opacity:1; 
stroke-linecap:round; stroke-linejoin:round;">
<text x="9206.811024" y="15749.960630"
textLength="1583.818898" font-size="666.653543" lengthAdjust="spacingAndGlyphs"
text-anchor="middle" opacity="0">GND</text>
<g class="stroked-text"><desc>GND</desc>
<path d="M8825 15249
L8778 15226
L8706 15226
L8635 15249
L8587 15297
L8563 15345
L8540 15440
L8540 15511
L8563 15607
L8587 15654
L8635 15702
L8706 15726
L8754 15726
L8825 15702
L8849 15678
L8849 15511
L8754 15511
" />
<path d="M9063 15726
L9063 15226
L9349 15726
L9349 15226
" />
<path d="M9587 15726
L9587 15226
L9706 15226
L9778 15249
L9825 15297
L9849 15345
L9873 15440
L9873 15511
L9849 15607
L9825 15654
L9778 15702
L9706 15726
L9587 15726
" />
</g></g>
</g>
<g style="fill:#006464; fill-opacity:0.0; 
stroke:#006464; stroke-width:60.000000; stroke-opacity:1; 
stroke-linecap:round; stroke-linejoin:round;">
<g >
</g>
<g style="fill:#840000; fill-opacity:0.0; 
stroke:#840000; stroke-width:60.000000; stroke-opacity:1; 
stroke-linecap:round; stroke-linejoin:round;">
</g>
<g style="fill:#840000; fill-opacity:0.0; 
stroke:#840000; stroke-width:100.000000; stroke-opacity:1; 
stroke-linecap:round; stroke-linejoin:round;">
<rect x="8500.000000" y="9700.000000" width="2000.000000" height="600.000000" rx="0.000000" />
</g>
<g style="fill:#840000; fill-opacity:0.0; 
stroke:#840000; stroke-width:60.000000; stroke-opacity:1; 
stroke-linecap:round; stroke-linejoin:round;">
<path style="fill:#840000; fill-opacity:0.0; 
stroke:#840000; stroke-width:60.000000; stroke-opacity:1; 
stroke-linecap:round; stroke-linejoin:round;fill:none"
d="M 8500.000000,10000.000000
10500.000000,10000.000000
" /> 
<path d="M8500 10000
L8000 10000
" />
<path d="M10500 10000
L11000 10000
" />
</g>
<g style="fill:#006464; fill-opacity:0.0; 
stroke:#006464; stroke-width:60.000000; stroke-opacity:1; 
stroke-linecap:round; stroke-linejoin:round;">
<text x="9499.960630" y="7750.000000"
textLength="964.763780" font-size="666.653543" lengthAdjust="spacingAndGlyphs"
text-anchor="middle" opacity="0">F1</text>
<g class="stroked-text"><desc>F1</desc>
<path d="M9333 7464
L9166 7464
" />
<path d="M9166 7726
L9166 7226
L9404 7226
" />
<path d="M9857 7726
L9571 7726
" />
<path d="M9714 7726
L9714 7226
L9666 7297
L9618 7345
L9571 7369
" />
</g><text x="9499.960630" y="8750.000000"
textLength="1774.291339" font-size="666.653543" lengthAdjust="spacingAndGlyphs"
text-anchor="middle" opacity="0">Fuse</text>
<g class="stroked-text"><desc>Fuse</desc>
<path d="M8928 8464
L8761 8464
" />
<path d="M8761 8726
L8761 8226
L8999 8226
" />
<path d="M9404 8392
L9404 8726
" />
<path d="M9190 8392
L9190 8654
L9214 8702
L9261 8726
L9333 8726
L9380 8702
L9404 8678
" />
<path d="M9618 8702
L9666 8726
L9761 8726
L9809 8702
L9833 8654
L9833 8630
L9809 8583
L9761 8559
L9690 8559
L9642 8535
L9618 8488
L9618 8464
L9642 8416
L9690 8392
L9761 8392
L9809 8416
" />
<path d="M10238 8702
L10190 8726
L10095 8726
L10047 8702
L10023 8654
L10023 8464
L10047 8416
L10095 8392
L10190 8392
L10238 8416
L10261 8464
L10261 8511
L10023 8559
" />
</g></g>
</g>
<g style="fill:#006464; fill-opacity:0.0; 
stroke:#006464; stroke-width:60.000000; stroke-opacity:1; 
stroke-linecap:round; stroke-linejoin:round;">
<g >
</g>
<g style="fill:#840000; fill-opacity:0.0; 
stroke:#840000; stroke-width:60.000000; stroke-opacity:1; 
stroke-linecap:round; stroke-linejoin:round;">
<path style="fill:#840000; fill-opacity:0.0; 
stroke:#840000; stroke-width:60.000000; stroke-opacity:1; 
stroke-linecap:round; stroke-linejoin:round;fill:none"
d="M 35000.000000,15500.000000
35000.000000,16000.000000
35500.000000,16000.000000
35000.000000,16500.000000
34500.000000,16000.000000
35000.000000,16000.000000
" /> 
</g>
<g style="fill:#006464; fill-opacity:0.0; 
stroke:#006464; stroke-width:60.000000; stroke-opacity:1; 
stroke-linecap:round; stroke-linejoin:round;">
<text x="35000.000000" y="17249.960630"
textLength="1583.818898" font-size="666.653543" lengthAdjust="spacingAndGlyphs"
text-anchor="middle" opacity="0">GND</text>
<g class="stroked-text"><desc>GND</desc>
<path d="M34619 16749
L34571 16726
L34500 16726
L34428 16749
L34380 16797
L34357 16845
L34333 16940
L34333 17011
L34357 17107
L34380 17154
L34428 17202
L34500 17226
L34547 17226
L34619 17202
L34642 17178
L34642 17011
L34547 17011
" />
<path d="M34857 17226
L34857 16726
L35142 17226
L35142 16726
" />
<path d="M35380 17226
L35380 16726
L35500 16726
L35571 16749
L35619 16797
L35642 16845
L35666 16940
L35666 17011
L35642 17107
L35619 17154
L35571 17202
L35500 17226
L35380 17226
" />
</g></g>
</g>
<g style="fill:#006464; fill-opacity:0.0; 
stroke:#006464; stroke-width:60.000000; stroke-opacity:1; 
stroke-linecap:round; stroke-linejoin:round;">
<g >
</g>
<g style="fill:#840000; fill-opacity:0.0; 
stroke:#840000; stroke-width:60.000000; stroke-opacity:1; 
stroke-linecap:round; stroke-linejoin:round;">
<path style="fill:#840000; fill-opacity:0.0; 
stroke:#840000; stroke-width:60.000000; stroke-opacity:1; 
stroke-linecap:round; stroke-linejoin:round;fill:none"
d="M 31500.000000,15500.000000
31500.000000,16000.000000
32000.000000,16000.000000
31500.000000,16500.000000
31000.000000,16000.000000
31500.000000,16000.000000
" /> 
</g>
<g style="fill:#006464; fill-opacity:0.0; 
stroke:#006464; stroke-width:60.000000; stroke-opacity:1; 
stroke-linecap:round; stroke-linejoin:round;">
<text x="31500.000000" y="17249.960630"
textLength="1583.818898" font-size="666.653543" lengthAdjust="spacingAndGlyphs"
text-anchor="middle" opacity="0">GND</text>
<g class="stroked-text"><desc>GND</desc>
<path d="M31119 16749
L31071 16726
L31000 16726
L30928 16749
L30880 16797
L30857 16845
L30833 16940
L30833 17011
L30857 17107
L30880 17154
L30928 17202
L31000 17226
L31047 17226
L31119 17202
L31142 17178
L31142 17011
L31047 17011
" />
<path d="M31357 17226
L31357 16726
L31642 17226
L31642 16726
" />
<path d="M31880 17226
L31880 16726
L32000 16726
L32071 16749
L32119 16797
L32142 16845
L32166 16940
L32166 17011
L32142 17107
L32119 17154
L32071 17202
L32000 17226
L31880 17226
" />
</g></g>
</g>
<g style="fill:#006464; fill-opacity:0.0; 
stroke:#006464; stroke-width:60.000000; stroke-opacity:1; 
stroke-linecap:round; stroke-linejoin:round;">
<g >
</g>
<g style="fill:#840000; fill-opacity:0.0; 
stroke:#840000; stroke-width:60.000000; stroke-opacity:1; 
stroke-linecap:round; stroke-linejoin:round;">
<path d="M14499.880807 15489.989903 A507.480315 507.480315 0.0 0 0 14999.966447 15000.269863" />
<path d="M14499.880807 14489.989903 A507.480315 507.480315 0.0 0 0 14999.966447 14000.269863" />
<path d="M14499.880807 13489.989903 A507.480315 507.480315 0.0 0 0 14999.966447 13000.269863" />
<path d="M14499.880807 12489.989903 A507.480315 507.480315 0.0 0 0 14999.966447 12000.269863" />
<path d="M15000.000000 15000.039370 A500.039370 500.039370 0.0 0 0 14499.960630 14500.000000" />
<path d="M15000.000000 14000.039370 A500.039370 500.039370 0.0 0 0 14499.960630 13500.000000" />
<path d="M15000.000000 13000.039370 A500.039370 500.039370 0.0 0 0 14499.960630 12500.000000" />
<path d="M15000.000000 12000.039370 A500.039370 500.039370 0.0 0 0 14499.960630 11500.000000" />
<path style="fill:#840000; fill-opacity:0.0; 
stroke:#840000; stroke-width:60.000000; stroke-opacity:1; 
stroke-linecap:round; stroke-linejoin:round;fill:none"
d="M 15300.000000,17500.000000
15300.000000,9500.000000
" /> 
<path style="fill:#840000; fill-opacity:0.0; 
stroke:#840000; stroke-width:60.000000; stroke-opacity:1; 
stroke-linecap:round; stroke-linejoin:round;fill:none"
d="M 15700.000000,9500.000000
15700.000000,17500.000000
" /> 
<path d="M16010.000000 17000.000000 A490.000000 490.000000 0.0 0 0 16500.000000 17490.000000" />
<path d="M16010.000000 16000.000000 A490.000000 490.000000 0.0 0 0 16500.000000 16490.000000" />
<path d="M16010.000000 15000.000000 A490.000000 490.000000 0.0 0 0 16500.000000 15490.000000" />
<path d="M16010.000000 12000.000000 A490.000000 490.000000 0.0 0 0 16500.000000 12490.000000" />
<path d="M16010.000000 11000.000000 A490.000000 490.000000 0.0 0 0 16500.000000 11490.000000" />
<path d="M16010.000000 10000.000000 A490.000000 490.000000 0.0 0 0 16500.000000 10490.000000" />
<path d="M16500.057856 16500.007760 A483.503937 483.503937 0.0 0 0 16010.097687 17000.338611" />
<path d="M16500.057856 15500.007760 A483.503937 483.503937 0.0 0 0 16010.097687 16000.338611" />
<path d="M16500.057856 14500.007760 A483.503937 483.503937 0.0 0 0 16010.097687 15000.338611" />
<path d="M16500.057856 11500.007760 A483.503937 483.503937 0.0 0 0 16010.097687 12000.338611" />
<path d="M16500.057856 10500.007760 A483.503937 483.503937 0.0 0 0 16010.097687 11000.338611" />
<path d="M16500.057856 9500.007760 A483.503937 483.503937 0.0 0 0 16010.097687 10000.338611" />
<path d="M14500 11500
L11500 11500
" />
</g>
<g style="fill:#A90000; fill-opacity:0.0; 
stroke:#A90000; stroke-width:60.000000; stroke-opacity:1; 
stroke-linecap:round; stroke-linejoin:round;">
<text x="13000.000000" y="11400.000000"
textLength="536.181102" font-size="666.653543" lengthAdjust="spacingAndGlyphs"
text-anchor="middle" opacity="0">1</text>
<g class="stroked-text"><desc>1</desc>
<path d="M13142 11376
L12857 11376
" />
<path d="M13000 11376
L13000 10876
L12952 10947
L12904 10995
L12857 11019
" />
</g></g>
<g style="fill:#840000; fill-opacity:0.0; 
stroke:#840000; stroke-width:60.000000; stroke-opacity:1; 
stroke-linecap:round; stroke-linejoin:round;">
<path d="M14500 15500
L11500 15500
" />
</g>
<g style="fill:#A90000; fill-opacity:0.0; 
stroke:#A90000; stroke-width:60.000000; stroke-opacity:1; 
stroke-linecap:round; stroke-linejoin:round;">
<text x="13000.000000" y="15400.000000"
textLength="536.181102" font-size="666.653543" lengthAdjust="spacingAndGlyphs"
text-anchor="middle" opacity="0">2</text>
<g class="stroked-text"><desc>2</desc>
<path d="M12857 14923
L12880 14900
L12928 14876
L13047 14876
L13095 14900
L13119 14923
L13142 14971
L13142 15019
L13119 15090
L12833 15376
L13142 15376
" />
</g></g>
<g style="fill:#840000; fill-opacity:0.0; 
stroke:#840000; stroke-width:60.000000; stroke-opacity:1; 
stroke-linecap:round; stroke-linejoin:round;">
<path d="M16500 9500
L19500 9500
" />
</g>
<g style="fill:#A90000; fill-opacity:0.0; 
stroke:#A90000; stroke-width:60.000000; stroke-opacity:1; 
stroke-linecap:round; stroke-linejoin:round;">
<text x="18000.000000" y="9400.000000"
textLength="536.181102" font-size="666.653543" lengthAdjust="spacingAndGlyphs"
text-anchor="middle" opacity="0">3</text>
<g class="stroked-text"><desc>3</desc>
<path d="M17833 8876
L18142 8876
L17976 9066
L18047 9066
L18095 9090
L18119 9114
L18142 9161
L18142 9280
L18119 9328
L18095 9352
L18047 9376
L17904 9376
L17857 9352
L17833 9328
" />
</g></g>
<g style="fill:#840000; fill-opacity:0.0; 
stroke:#840000; stroke-width:60.000000; stroke-opacity:1; 
stroke-linecap:round; stroke-linejoin:round;">
<path d="M16500 12500
L19500 12500
" />
</g>
<g style="fill:#A90000; fill-opacity:0.0; 
stroke:#A90000; stroke-width:60.000000; stroke-opacity:1; 
stroke-linecap:round; stroke-linejoin:round;">
<text x="18000.000000" y="12400.000000"
textLength="536.181102" font-size="666.653543" lengthAdjust="spacingAndGlyphs"
text-anchor="middle" opacity="0">4</text>
<g class="stroked-text"><desc>4</desc>
<path d="M18095 12042
L18095 12376
" />
<path d="M17976 11852
L17857 12209
L18166 12209
" />
</g></g>
<g style="fill:#840000; fill-opacity:0.0; 
stroke:#840000; stroke-width:60.000000; stroke-opacity:1; 
stroke-linecap:round; stroke-linejoin:round;">
<path d="M16500 14500
L19500 14500
" />
</g>
<g style="fill:#A90000; fill-opacity:0.0; 
stroke:#A90000; stroke-width:60.000000; stroke-opacity:1; 
stroke-linecap:round; stroke-linejoin:round;">
<text x="18000.000000" y="14400.000000"
textLength="536.181102" font-size="666.653543" lengthAdjust="spacingAndGlyphs"
text-anchor="middle" opacity="0">5</text>
<g class="stroked-text"><desc>5</desc>
<path d="M18119 13876
L17880 13876
L17857 14114
L17880 14090
L17928 14066
L18047 14066
L18095 14090
L18119 14114
L18142 14161
L18142 14280
L18119 14328
L18095 14352
L18047 14376
L17928 14376
L17880 14352
L17857 14328
" />
</g></g>
<g style="fill:#840000; fill-opacity:0.0; 
stroke:#840000; stroke-width:60.000000; stroke-opacity:1; 
stroke-linecap:round; stroke-linejoin:round;">
<path d="M16500 17500
L19500 17500
" />
</g>
<g style="fill:#A90000; fill-opacity:0.0; 
stroke:#A90000; stroke-width:60.000000; stroke-opacity:1; 
stroke-linecap:round; stroke-linejoin:round;">
<text x="18000.000000" y="17400.000000"
textLength="536.181102" font-size="666.653543" lengthAdjust="spacingAndGlyphs"
text-anchor="middle" opacity="0">6</text>
<g class="stroked-text"><desc>6</desc>
<path d="M18095 16876
L18000 16876
L17952 16900
L17928 16923
L17880 16995
L17857 17090
L17857 17280
L17880 17328
L17904 17352
L17952 17376
L18047 17376
L18095 17352
L18119 17328
L18142 17280
L18142 17161
L18119 17114
L18095 17090
L18047 17066
L17952 17066
L17904 17090
L17880 17114
L17857 17161
" />
</g></g>
<g style="fill:#006464; fill-opacity:0.0; 
stroke:#006464; stroke-width:60.000000; stroke-opacity:1; 
stroke-linecap:round; stroke-linejoin:round;">
<text x="15500.000000" y="7749.960630"
textLength="917.125984" font-size="666.653543" lengthAdjust="spacingAndGlyphs"
text-anchor="middle" opacity="0">T1</text>
<g class="stroked-text"><desc>T1</desc>
<path d="M15119 7226
L15404 7226
" />
<path d="M15261 7726
L15261 7226
" />
<path d="M15833 7726
L15547 7726
" />
<path d="M15690 7726
L15690 7226
L15642 7297
L15595 7345
L15547 7368
" />
</g><text x="15500.000000" y="8749.960630"
textLength="7202.874016" font-size="666.653543" lengthAdjust="spacingAndGlyphs"
text-anchor="middle" opacity="0">Transformer_1P_2S</text>
<g class="stroked-text"><desc>Transformer_1P_2S</desc>
<path d="M11976 8226
L12261 8226
" />
<path d="M12119 8726
L12119 8226
" />
<path d="M12428 8726
L12428 8392
" />
<path d="M12428 8488
L12452 8440
L12476 8416
L12523 8392
L12571 8392
" />
<path d="M12952 8726
L12952 8464
L12928 8416
L12880 8392
L12785 8392
L12738 8416
" />
<path d="M12952 8702
L12904 8726
L12785 8726
L12738 8702
L12714 8654
L12714 8607
L12738 8559
L12785 8535
L12904 8535
L12952 8511
" />
<path d="M13190 8392
L13190 8726
" />
<path d="M13190 8440
L13214 8416
L13261 8392
L13333 8392
L13380 8416
L13404 8464
L13404 8726
" />
<path d="M13619 8702
L13666 8726
L13761 8726
L13809 8702
L13833 8654
L13833 8630
L13809 8583
L13761 8559
L13690 8559
L13642 8535
L13619 8488
L13619 8464
L13642 8416
L13690 8392
L13761 8392
L13809 8416
" />
<path d="M13976 8392
L14166 8392
" />
<path d="M14047 8726
L14047 8297
L14071 8249
L14119 8226
L14166 8226
" />
<path d="M14404 8726
L14357 8702
L14333 8678
L14309 8630
L14309 8488
L14333 8440
L14357 8416
L14404 8392
L14476 8392
L14523 8416
L14547 8440
L14571 8488
L14571 8630
L14547 8678
L14523 8702
L14476 8726
L14404 8726
" />
<path d="M14785 8726
L14785 8392
" />
<path d="M14785 8488
L14809 8440
L14833 8416
L14880 8392
L14928 8392
" />
<path d="M15095 8726
L15095 8392
" />
<path d="M15095 8440
L15119 8416
L15166 8392
L15238 8392
L15285 8416
L15309 8464
L15309 8726
" />
<path d="M15309 8464
L15333 8416
L15380 8392
L15452 8392
L15500 8416
L15523 8464
L15523 8726
" />
<path d="M15952 8702
L15904 8726
L15809 8726
L15761 8702
L15738 8654
L15738 8464
L15761 8416
L15809 8392
L15904 8392
L15952 8416
L15976 8464
L15976 8511
L15738 8559
" />
<path d="M16190 8726
L16190 8392
" />
<path d="M16190 8488
L16214 8440
L16238 8416
L16285 8392
L16333 8392
" />
<path d="M16380 8773
L16761 8773
" />
<path d="M17142 8726
L16857 8726
" />
<path d="M17000 8726
L17000 8226
L16952 8297
L16904 8345
L16857 8368
" />
<path d="M17357 8726
L17357 8226
L17547 8226
L17595 8249
L17619 8273
L17642 8321
L17642 8392
L17619 8440
L17595 8464
L17547 8488
L17357 8488
" />
<path d="M17738 8773
L18119 8773
" />
<path d="M18214 8273
L18238 8249
L18285 8226
L18404 8226
L18452 8249
L18476 8273
L18500 8321
L18500 8368
L18476 8440
L18190 8726
L18500 8726
" />
<path d="M18690 8702
L18761 8726
L18880 8726
L18928 8702
L18952 8678
L18976 8630
L18976 8583
L18952 8535
L18928 8511
L18880 8488
L18785 8464
L18738 8440
L18714 8416
L18690 8368
L18690 8321
L18714 8273
L18738 8249
L18785 8226
L18904 8226
L18976 8249
" />
</g></g>
</g>
<g style="fill:#006464; fill-opacity:0.0; 
stroke:#006464; stroke-width:60.000000; stroke-opacity:1; 
stroke-linecap:round; stroke-linejoin:round;">
<g >
</g>
<g style="fill:#840000; fill-opacity:0.0; 
stroke:#840000; stroke-width:60.000000; stroke-opacity:1; 
stroke-linecap:round; stroke-linejoin:round;">
<path style="fill:#840000; fill-opacity:0.0; 
stroke:#840000; stroke-width:60.000000; stroke-opacity:1; 
stroke-linecap:round; stroke-linejoin:round;fill:none"
d="M 20500.000000,13500.000000
21000.000000,13500.000000
21000.000000,13000.000000
21500.000000,13500.000000
21000.000000,14000.000000
21000.000000,13500.000000
" /> 
</g>
<g style="fill:#006464; fill-opacity:0.0; 
stroke:#006464; stroke-width:60.000000; stroke-opacity:1; 
stroke-linecap:round; stroke-linejoin:round;">
<text x="22293.149606" y="13750.000000"
textLength="1583.818898" font-size="666.653543" lengthAdjust="spacingAndGlyphs"
text-anchor="middle" opacity="0">GND</text>
<g class="stroked-text"><desc>GND</desc>
<path d="M21912 13250
L21864 13226
L21793 13226
L21721 13250
L21674 13297
L21650 13345
L21626 13440
L21626 13511
L21650 13607
L21674 13654
L21721 13702
L21793 13726
L21840 13726
L21912 13702
L21935 13678
L21935 13511
L21840 13511
" />
<path d="M22150 13726
L22150 13226
L22435 13726
L22435 13226
" />
<path d="M22674 13726
L22674 13226
L22793 13226
L22864 13250
L22912 13297
L22935 13345
L22959 13440
L22959 13511
L22935 13607
L22912 13654
L22864 13702
L22793 13726
L22674 13726
" />
</g></g>
</g>
<g style="fill:#006464; fill-opacity:0.0; 
stroke:#006464; stroke-width:60.000000; stroke-opacity:1; 
stroke-linecap:round; stroke-linejoin:round;">
<g >
</g>
<g style="fill:#840000; fill-opacity:0.0; 
stroke:#840000; stroke-width:60.000000; stroke-opacity:1; 
stroke-linecap:round; stroke-linejoin:round;">
</g>
<g style="fill:#840000; fill-opacity:0.0; 
stroke:#840000; stroke-width:100.000000; stroke-opacity:1; 
stroke-linecap:round; stroke-linejoin:round;">
<rect x="34600.000000" y="12500.000000" width="800.000000" height="2000.000000" rx="0.000000" />
</g>
<g style="fill:#840000; fill-opacity:0.0; 
stroke:#840000; stroke-width:60.000000; stroke-opacity:1; 
stroke-linecap:round; stroke-linejoin:round;">
<path d="M35000 12500
L35000 12000
" />
<path d="M35000 14500
L35000 15000
" />
</g>
<g style="fill:#006464; fill-opacity:0.0; 
stroke:#006464; stroke-width:60.000000; stroke-opacity:1; 
stroke-linecap:round; stroke-linejoin:round;">
<text x="36019.330709" y="13249.960630"
textLength="1036.181102" font-size="666.653543" lengthAdjust="spacingAndGlyphs"
text-anchor="middle" opacity="0">R1</text>
<g class="stroked-text"><desc>R1</desc>
<path d="M35935 13226
L35769 12988
" />
<path d="M35650 13226
L35650 12726
L35840 12726
L35888 12749
L35912 12773
L35935 12821
L35935 12892
L35912 12940
L35888 12964
L35840 12988
L35650 12988
" />
<path d="M36412 13226
L36126 13226
" />
<path d="M36269 13226
L36269 12726
L36221 12797
L36174 12845
L36126 12868
" />
</g><text x="36328.858268" y="14249.960630"
textLength="1655.236220" font-size="666.653543" lengthAdjust="spacingAndGlyphs"
text-anchor="middle" opacity="0">1.5k</text>
<g class="stroked-text"><desc>1.5k</desc>
<path d="M35912 14226
L35626 14226
" />
<path d="M35769 14226
L35769 13726
L35721 13797
L35674 13845
L35626 13868
" />
<path d="M36126 14178
L36150 14202
L36126 14226
L36102 14202
L36126 14178
L36126 14226
" />
<path d="M36602 13726
L36364 13726
L36340 13964
L36364 13940
L36412 13916
L36531 13916
L36578 13940
L36602 13964
L36626 14011
L36626 14130
L36602 14178
L36578 14202
L36531 14226
L36412 14226
L36364 14202
L36340 14178
" />
<path d="M36840 14226
L36840 13726
" />
<path d="M36888 14035
L37031 14226
" />
<path d="M37031 13892
L36840 14083
" />
</g></g>
</g>
<g style="fill:#006464; fill-opacity:0.0; 
stroke:#006464; stroke-width:60.000000; stroke-opacity:1; 
stroke-linecap:round; stroke-linejoin:round;">
<g >
</g>
<g style="fill:#840000; fill-opacity:0.0; 
stroke:#840000; stroke-width:60.000000; stroke-opacity:1; 
stroke-linecap:round; stroke-linejoin:round;">
</g>
<g style="fill:#840000; fill-opacity:0.0; 
stroke:#840000; stroke-width:100.000000; stroke-opacity:1; 
stroke-linecap:round; stroke-linejoin:round;">
<path style="fill:#840000; fill-opacity:0.0; 
stroke:#840000; stroke-width:100.000000; stroke-opacity:1; 
stroke-linecap:round; stroke-linejoin:round;fill:none"
d="M 26500.000000,17000.000000
26500.000000,18000.000000
" /> 
</g>
<g style="fill:#840000; fill-opacity:0.0; 
stroke:#840000; stroke-width:60.000000; stroke-opacity:1; 
stroke-linecap:round; stroke-linejoin:round;">
<path style="fill:#840000; fill-opacity:0.0; 
stroke:#840000; stroke-width:60.000000; stroke-opacity:1; 
stroke-linecap:round; stroke-linejoin:round;fill:none"
d="M 27500.000000,17500.000000
26500.000000,17500.000000
" /> 
</g>
<g style="fill:#840000; fill-opacity:0.0; 
stroke:#840000; stroke-width:100.000000; stroke-opacity:1; 
stroke-linecap:round; stroke-linejoin:round;">
<path style="fill:#840000; fill-opacity:0.0; 
stroke:#840000; stroke-width:100.000000; stroke-opacity:1; 
stroke-linecap:round; stroke-linejoin:round;fill:none"
d="M 27500.000000,17000.000000
27500.000000,18000.000000
26500.000000,17500.000000
Z" /> 
</g>
<g style="fill:#840000; fill-opacity:0.0; 
stroke:#840000; stroke-width:60.000000; stroke-opacity:1; 
stroke-linecap:round; stroke-linejoin:round;">
<path d="M26500 17500
L25500 17500
" />
<path d="M27500 17500
L28500 17500
" />
</g>
<g style="fill:#006464; fill-opacity:0.0; 
stroke:#006464; stroke-width:60.000000; stroke-opacity:1; 
stroke-linecap:round; stroke-linejoin:round;">
<text x="29000.000000" y="18749.960630"
textLength="1036.181102" font-size="666.653543" lengthAdjust="spacingAndGlyphs"
text-anchor="middle" opacity="0">D4</text>
<g class="stroked-text"><desc>D4</desc>
<path d="M28630 18726
L28630 18226
L28750 18226
L28821 18249
L28869 18297
L28892 18345
L28916 18440
L28916 18511
L28892 18607
L28869 18654
L28821 18702
L28750 18726
L28630 18726
" />
<path d="M29345 18392
L29345 18726
" />
<path d="M29226 18202
L29107 18559
L29416 18559
" />
</g><text x="27000.000000" y="18749.960630"
textLength="2964.763780" font-size="666.653543" lengthAdjust="spacingAndGlyphs"
text-anchor="middle" opacity="0">1N4004</text>
<g class="stroked-text"><desc>1N4004</desc>
<path d="M25928 18726
L25642 18726
" />
<path d="M25785 18726
L25785 18226
L25738 18297
L25690 18345
L25642 18368
" />
<path d="M26142 18726
L26142 18226
L26428 18726
L26428 18226
" />
<path d="M26880 18392
L26880 18726
" />
<path d="M26761 18202
L26642 18559
L26952 18559
" />
<path d="M27238 18226
L27285 18226
L27333 18249
L27357 18273
L27380 18321
L27404 18416
L27404 18535
L27380 18630
L27357 18678
L27333 18702
L27285 18726
L27238 18726
L27190 18702
L27166 18678
L27142 18630
L27119 18535
L27119 18416
L27142 18321
L27166 18273
L27190 18249
L27238 18226
" />
<path d="M27714 18226
L27761 18226
L27809 18249
L27833 18273
L27857 18321
L27880 18416
L27880 18535
L27857 18630
L27833 18678
L27809 18702
L27761 18726
L27714 18726
L27666 18702
L27642 18678
L27619 18630
L27595 18535
L27595 18416
L27619 18321
L27642 18273
L27666 18249
L27714 18226
" />
<path d="M28309 18392
L28309 18726
" />
<path d="M28190 18202
L28071 18559
L28380 18559
" />
</g></g>
</g>
<g style="fill:#006464; fill-opacity:0.0; 
stroke:#006464; stroke-width:60.000000; stroke-opacity:1; 
stroke-linecap:round; stroke-linejoin:round;">
<g >
</g>
<g style="fill:#840000; fill-opacity:0.0; 
stroke:#840000; stroke-width:60.000000; stroke-opacity:1; 
stroke-linecap:round; stroke-linejoin:round;">
</g>
<g style="fill:#840000; fill-opacity:0.0; 
stroke:#840000; stroke-width:100.000000; stroke-opacity:1; 
stroke-linecap:round; stroke-linejoin:round;">
<path style="fill:#840000; fill-opacity:0.0; 
stroke:#840000; stroke-width:100.000000; stroke-opacity:1; 
stroke-linecap:round; stroke-linejoin:round;fill:none"
d="M 26500.000000,15500.000000
26500.000000,16500.000000
" /> 
</g>
<g style="fill:#840000; fill-opacity:0.0; 
stroke:#840000; stroke-width:60.000000; stroke-opacity:1; 
stroke-linecap:round; stroke-linejoin:round;">
<path style="fill:#840000; fill-opacity:0.0; 
stroke:#840000; stroke-width:60.000000; stroke-opacity:1; 
stroke-linecap:round; stroke-linejoin:round;fill:none"
d="M 27500.000000,16000.000000
26500.000000,16000.000000
" /> 
</g>
<g style="fill:#840000; fill-opacity:0.0; 
stroke:#840000; stroke-width:100.000000; stroke-opacity:1; 
stroke-linecap:round; stroke-linejoin:round;">
<path style="fill:#840000; fill-opacity:0.0; 
stroke:#840000; stroke-width:100.000000; stroke-opacity:1; 
stroke-linecap:round; stroke-linejoin:round;fill:none"
d="M 27500.000000,15500.000000
27500.000000,16500.000000
26500.000000,16000.000000
Z" /> 
</g>
<g style="fill:#840000; fill-opacity:0.0; 
stroke:#840000; stroke-width:60.000000; stroke-opacity:1; 
stroke-linecap:round; stroke-linejoin:round;">
<path d="M26500 16000
L25500 16000
" />
<path d="M27500 16000
L28500 16000
" />
</g>
<g style="fill:#006464; fill-opacity:0.0; 
stroke:#006464; stroke-width:60.000000; stroke-opacity:1; 
stroke-linecap:round; stroke-linejoin:round;">
<text x="29000.000000" y="15249.960630"
textLength="1036.181102" font-size="666.653543" lengthAdjust="spacingAndGlyphs"
text-anchor="middle" opacity="0">D3</text>
<g class="stroked-text"><desc>D3</desc>
<path d="M28630 15226
L28630 14726
L28750 14726
L28821 14749
L28869 14797
L28892 14845
L28916 14940
L28916 15011
L28892 15107
L28869 15154
L28821 15202
L28750 15226
L28630 15226
" />
<path d="M29083 14726
L29392 14726
L29226 14916
L29297 14916
L29345 14940
L29369 14964
L29392 15011
L29392 15130
L29369 15178
L29345 15202
L29297 15226
L29154 15226
L29107 15202
L29083 15178
" />
</g><text x="27000.000000" y="15249.960630"
textLength="2964.763780" font-size="666.653543" lengthAdjust="spacingAndGlyphs"
text-anchor="middle" opacity="0">1N4004</text>
<g class="stroked-text"><desc>1N4004</desc>
<path d="M25928 15226
L25642 15226
" />
<path d="M25785 15226
L25785 14726
L25738 14797
L25690 14845
L25642 14868
" />
<path d="M26142 15226
L26142 14726
L26428 15226
L26428 14726
" />
<path d="M26880 14892
L26880 15226
" />
<path d="M26761 14702
L26642 15059
L26952 15059
" />
<path d="M27238 14726
L27285 14726
L27333 14749
L27357 14773
L27380 14821
L27404 14916
L27404 15035
L27380 15130
L27357 15178
L27333 15202
L27285 15226
L27238 15226
L27190 15202
L27166 15178
L27142 15130
L27119 15035
L27119 14916
L27142 14821
L27166 14773
L27190 14749
L27238 14726
" />
<path d="M27714 14726
L27761 14726
L27809 14749
L27833 14773
L27857 14821
L27880 14916
L27880 15035
L27857 15130
L27833 15178
L27809 15202
L27761 15226
L27714 15226
L27666 15202
L27642 15178
L27619 15130
L27595 15035
L27595 14916
L27619 14821
L27642 14773
L27666 14749
L27714 14726
" />
<path d="M28309 14892
L28309 15226
" />
<path d="M28190 14702
L28071 15059
L28380 15059
" />
</g></g>
</g>
<g style="fill:#006464; fill-opacity:0.0; 
stroke:#006464; stroke-width:60.000000; stroke-opacity:1; 
stroke-linecap:round; stroke-linejoin:round;">
<g >
</g>
<g style="fill:#840000; fill-opacity:0.0; 
stroke:#840000; stroke-width:60.000000; stroke-opacity:1; 
stroke-linecap:round; stroke-linejoin:round;">
</g>
<g style="fill:#840000; fill-opacity:0.0; 
stroke:#840000; stroke-width:200.000000; stroke-opacity:1; 
stroke-linecap:round; stroke-linejoin:round;">
<path style="fill:#840000; fill-opacity:0.0; 
stroke:#840000; stroke-width:200.000000; stroke-opacity:1; 
stroke-linecap:round; stroke-linejoin:round;fill:none"
d="M 30700.000000,13800.000000
32300.000000,13800.000000
" /> 
<path style="fill:#840000; fill-opacity:0.0; 
stroke:#840000; stroke-width:200.000000; stroke-opacity:1; 
stroke-linecap:round; stroke-linejoin:round;fill:none"
d="M 30700.000000,13200.000000
32300.000000,13200.000000
" /> 
</g>
<g style="fill:#840000; fill-opacity:0.0; 
stroke:#840000; stroke-width:60.000000; stroke-opacity:1; 
stroke-linecap:round; stroke-linejoin:round;">
<path d="M31500 13100
L31500 12000
" />
<path d="M31500 13900
L31500 15000
" />
</g>
<g style="fill:#006464; fill-opacity:0.0; 
stroke:#006464; stroke-width:60.000000; stroke-opacity:1; 
stroke-linecap:round; stroke-linejoin:round;">
<text x="33019.330709" y="13249.960630"
textLength="1036.181102" font-size="666.653543" lengthAdjust="spacingAndGlyphs"
text-anchor="middle" opacity="0">C1</text>
<g class="stroked-text"><desc>C1</desc>
<path d="M32935 13178
L32912 13202
L32840 13226
L32793 13226
L32721 13202
L32674 13154
L32650 13107
L32626 13011
L32626 12940
L32650 12845
L32674 12797
L32721 12749
L32793 12726
L32840 12726
L32912 12749
L32935 12773
" />
<path d="M33412 13226
L33126 13226
" />
<path d="M33269 13226
L33269 12726
L33221 12797
L33174 12845
L33126 12868
" />
</g><text x="33471.732283" y="14249.960630"
textLength="1940.944882" font-size="666.653543" lengthAdjust="spacingAndGlyphs"
text-anchor="middle" opacity="0">470u</text>
<g class="stroked-text"><desc>470u</desc>
<path d="M32864 13892
L32864 14226
" />
<path d="M32745 13702
L32626 14059
L32935 14059
" />
<path d="M33078 13726
L33412 13726
L33197 14226
" />
<path d="M33697 13726
L33745 13726
L33793 13749
L33816 13773
L33840 13821
L33864 13916
L33864 14035
L33840 14130
L33816 14178
L33793 14202
L33745 14226
L33697 14226
L33650 14202
L33626 14178
L33602 14130
L33578 14035
L33578 13916
L33602 13821
L33626 13773
L33650 13749
L33697 13726
" />
<path d="M34293 13892
L34293 14226
" />
<path d="M34078 13892
L34078 14154
L34102 14202
L34150 14226
L34221 14226
L34269 14202
L34293 14178
" />
</g></g>
</g>
<g style="fill:#006464; fill-opacity:0.0; 
stroke:#006464; stroke-width:60.000000; stroke-opacity:1; 
stroke-linecap:round; stroke-linejoin:round;">
<g >
</g>
<g style="fill:#840000; fill-opacity:0.0; 
stroke:#840000; stroke-width:60.000000; stroke-opacity:1; 
stroke-linecap:round; stroke-linejoin:round;">
</g>
<g style="fill:#840000; fill-opacity:0.0; 
stroke:#840000; stroke-width:100.000000; stroke-opacity:1; 
stroke-linecap:round; stroke-linejoin:round;">
<path style="fill:#840000; fill-opacity:0.0; 
stroke:#840000; stroke-width:100.000000; stroke-opacity:1; 
stroke-linecap:round; stroke-linejoin:round;fill:none"
d="M 27500.000000,10000.000000
27500.000000,9000.000000
" /> 
</g>
<g style="fill:#840000; fill-opacity:0.0; 
stroke:#840000; stroke-width:60.000000; stroke-opacity:1; 
stroke-linecap:round; stroke-linejoin:round;">
<path style="fill:#840000; fill-opacity:0.0; 
stroke:#840000; stroke-width:60.000000; stroke-opacity:1; 
stroke-linecap:round; stroke-linejoin:round;fill:none"
d="M 26500.000000,9500.000000
27500.000000,9500.000000
" /> 
</g>
<g style="fill:#840000; fill-opacity:0.0; 
stroke:#840000; stroke-width:100.000000; stroke-opacity:1; 
stroke-linecap:round; stroke-linejoin:round;">
<path style="fill:#840000; fill-opacity:0.0; 
stroke:#840000; stroke-width:100.000000; stroke-opacity:1; 
stroke-linecap:round; stroke-linejoin:round;fill:none"
d="M 26500.000000,10000.000000
26500.000000,9000.000000
27500.000000,9500.000000
Z" /> 
</g>
<g style="fill:#840000; fill-opacity:0.0; 
stroke:#840000; stroke-width:60.000000; stroke-opacity:1; 
stroke-linecap:round; stroke-linejoin:round;">
<path d="M27500 9500
L28500 9500
" />
<path d="M26500 9500
L25500 9500
" />
</g>
<g style="fill:#006464; fill-opacity:0.0; 
stroke:#006464; stroke-width:60.000000; stroke-opacity:1; 
stroke-linecap:round; stroke-linejoin:round;">
<text x="28999.960630" y="8750.000000"
textLength="1036.181102" font-size="666.653543" lengthAdjust="spacingAndGlyphs"
text-anchor="middle" opacity="0">D1</text>
<g class="stroked-text"><desc>D1</desc>
<path d="M28630 8726
L28630 8226
L28749 8226
L28821 8250
L28868 8297
L28892 8345
L28916 8440
L28916 8511
L28892 8607
L28868 8654
L28821 8702
L28749 8726
L28630 8726
" />
<path d="M29392 8726
L29107 8726
" />
<path d="M29249 8726
L29249 8226
L29202 8297
L29154 8345
L29107 8369
" />
</g><text x="26999.960630" y="8750.000000"
textLength="2964.763780" font-size="666.653543" lengthAdjust="spacingAndGlyphs"
text-anchor="middle" opacity="0">1N4004</text>
<g class="stroked-text"><desc>1N4004</desc>
<path d="M25928 8726
L25642 8726
" />
<path d="M25785 8726
L25785 8226
L25738 8297
L25690 8345
L25642 8369
" />
<path d="M26142 8726
L26142 8226
L26428 8726
L26428 8226
" />
<path d="M26880 8392
L26880 8726
" />
<path d="M26761 8202
L26642 8559
L26952 8559
" />
<path d="M27238 8226
L27285 8226
L27333 8250
L27357 8273
L27380 8321
L27404 8416
L27404 8535
L27380 8630
L27357 8678
L27333 8702
L27285 8726
L27238 8726
L27190 8702
L27166 8678
L27142 8630
L27118 8535
L27118 8416
L27142 8321
L27166 8273
L27190 8250
L27238 8226
" />
<path d="M27714 8226
L27761 8226
L27809 8250
L27833 8273
L27857 8321
L27880 8416
L27880 8535
L27857 8630
L27833 8678
L27809 8702
L27761 8726
L27714 8726
L27666 8702
L27642 8678
L27618 8630
L27595 8535
L27595 8416
L27618 8321
L27642 8273
L27666 8250
L27714 8226
" />
<path d="M28309 8392
L28309 8726
" />
<path d="M28190 8202
L28071 8559
L28380 8559
" />
</g></g>
</g>
<g style="fill:#006464; fill-opacity:0.0; 
stroke:#006464; stroke-width:60.000000; stroke-opacity:1; 
stroke-linecap:round; stroke-linejoin:round;">
<g >
</g>
<g style="fill:#840000; fill-opacity:0.0; 
stroke:#840000; stroke-width:60.000000; stroke-opacity:1; 
stroke-linecap:round; stroke-linejoin:round;">
</g>
<g style="fill:#840000; fill-opacity:0.0; 
stroke:#840000; stroke-width:100.000000; stroke-opacity:1; 
stroke-linecap:round; stroke-linejoin:round;">
<path style="fill:#840000; fill-opacity:0.0; 
stroke:#840000; stroke-width:100.000000; stroke-opacity:1; 
stroke-linecap:round; stroke-linejoin:round;fill:none"
d="M 27500.000000,11500.000000
27500.000000,10500.000000
" /> 
</g>
<g style="fill:#840000; fill-opacity:0.0; 
stroke:#840000; stroke-width:60.000000; stroke-opacity:1; 
stroke-linecap:round; stroke-linejoin:round;">
<path style="fill:#840000; fill-opacity:0.0; 
stroke:#840000; stroke-width:60.000000; stroke-opacity:1; 
stroke-linecap:round; stroke-linejoin:round;fill:none"
d="M 26500.000000,11000.000000
27500.000000,11000.000000
" /> 
</g>
<g style="fill:#840000; fill-opacity:0.0; 
stroke:#840000; stroke-width:100.000000; stroke-opacity:1; 
stroke-linecap:round; stroke-linejoin:round;">
<path style="fill:#840000; fill-opacity:0.0; 
stroke:#840000; stroke-width:100.000000; stroke-opacity:1; 
stroke-linecap:round; stroke-linejoin:round;fill:none"
d="M 26500.000000,11500.000000
26500.000000,10500.000000
27500.000000,11000.000000
Z" /> 
</g>
<g style="fill:#840000; fill-opacity:0.0; 
stroke:#840000; stroke-width:60.000000; stroke-opacity:1; 
stroke-linecap:round; stroke-linejoin:round;">
<path d="M27500 11000
L28500 11000
" />
<path d="M26500 11000
L25500 11000
" />
</g>
<g style="fill:#006464; fill-opacity:0.0; 
stroke:#006464; stroke-width:60.000000; stroke-opacity:1; 
stroke-linecap:round; stroke-linejoin:round;">
<text x="28999.960630" y="12250.000000"
textLength="1036.181102" font-size="666.653543" lengthAdjust="spacingAndGlyphs"
text-anchor="middle" opacity="0">D2</text>
<g class="stroked-text"><desc>D2</desc>
<path d="M28630 12226
L28630 11726
L28749 11726
L28821 11750
L28868 11797
L28892 11845
L28916 11940
L28916 12011
L28892 12107
L28868 12154
L28821 12202
L28749 12226
L28630 12226
" />
<path d="M29107 11773
L29130 11750
L29178 11726
L29297 11726
L29345 11750
L29368 11773
L29392 11821
L29392 11869
L29368 11940
L29083 12226
L29392 12226
" />
</g><text x="26999.960630" y="12250.000000"
textLength="2964.763780" font-size="666.653543" lengthAdjust="spacingAndGlyphs"
text-anchor="middle" opacity="0">1N4004</text>
<g class="stroked-text"><desc>1N4004</desc>
<path d="M25928 12226
L25642 12226
" />
<path d="M25785 12226
L25785 11726
L25738 11797
L25690 11845
L25642 11869
" />
<path d="M26142 12226
L26142 11726
L26428 12226
L26428 11726
" />
<path d="M26880 11892
L26880 12226
" />
<path d="M26761 11702
L26642 12059
L26952 12059
" />
<path d="M27238 11726
L27285 11726
L27333 11750
L27357 11773
L27380 11821
L27404 11916
L27404 12035
L27380 12130
L27357 12178
L27333 12202
L27285 12226
L27238 12226
L27190 12202
L27166 12178
L27142 12130
L27118 12035
L27118 11916
L27142 11821
L27166 11773
L27190 11750
L27238 11726
" />
<path d="M27714 11726
L27761 11726
L27809 11750
L27833 11773
L27857 11821
L27880 11916
L27880 12035
L27857 12130
L27833 12178
L27809 12202
L27761 12226
L27714 12226
L27666 12202
L27642 12178
L27618 12130
L27595 12035
L27595 11916
L27618 11821
L27642 11773
L27666 11750
L27714 11726
" />
<path d="M28309 11892
L28309 12226
" />
<path d="M28190 11702
L28071 12059
L28380 12059
" />
</g></g>
</g>
<g style="fill:#006464; fill-opacity:0.0; 
stroke:#006464; stroke-width:60.000000; stroke-opacity:1; 
stroke-linecap:round; stroke-linejoin:round;">
<g >
</g>
<g style="fill:#840000; fill-opacity:0.0; 
stroke:#840000; stroke-width:60.000000; stroke-opacity:1; 
stroke-linecap:round; stroke-linejoin:round;">
<path style="fill:#840000; fill-opacity:0.0; 
stroke:#840000; stroke-width:60.000000; stroke-opacity:1; 
stroke-linecap:round; stroke-linejoin:round;fill:none"
d="M 38000.000000,15500.000000
38000.000000,16000.000000
38500.000000,16000.000000
38000.000000,16500.000000
37500.000000,16000.000000
38000.000000,16000.000000
" /> 
</g>
<g style="fill:#006464; fill-opacity:0.0; 
stroke:#006464; stroke-width:60.000000; stroke-opacity:1; 
stroke-linecap:round; stroke-linejoin:round;">
<text x="38000.000000" y="17249.960630"
textLength="1583.818898" font-size="666.653543" lengthAdjust="spacingAndGlyphs"
text-anchor="middle" opacity="0">GND</text>
<g class="stroked-text"><desc>GND</desc>
<path d="M37619 16749
L37571 16726
L37500 16726
L37428 16749
L37380 16797
L37357 16845
L37333 16940
L37333 17011
L37357 17107
L37380 17154
L37428 17202
L37500 17226
L37547 17226
L37619 17202
L37642 17178
L37642 17011
L37547 17011
" />
<path d="M37857 17226
L37857 16726
L38142 17226
L38142 16726
" />
<path d="M38380 17226
L38380 16726
L38500 16726
L38571 16749
L38619 16797
L38642 16845
L38666 16940
L38666 17011
L38642 17107
L38619 17154
L38571 17202
L38500 17226
L38380 17226
" />
</g></g>
</g>
<g style="fill:#006464; fill-opacity:0.0; 
stroke:#006464; stroke-width:60.000000; stroke-opacity:1; 
stroke-linecap:round; stroke-linejoin:round;">
<g >
</g>
<g style="fill:#840000; fill-opacity:0.0; 
stroke:#840000; stroke-width:60.000000; stroke-opacity:1; 
stroke-linecap:round; stroke-linejoin:round;">
<path style="fill:#840000; fill-opacity:0.0; 
stroke:#840000; stroke-width:60.000000; stroke-opacity:1; 
stroke-linecap:round; stroke-linejoin:round;fill:none"
d="M 38000.000000,14000.000000
38000.000000,13000.000000
" /> 
</g>
<g style="fill:#840000; fill-opacity:0.0; 
stroke:#840000; stroke-width:100.000000; stroke-opacity:1; 
stroke-linecap:round; stroke-linejoin:round;">
<path style="fill:#840000; fill-opacity:0.0; 
stroke:#840000; stroke-width:100.000000; stroke-opacity:1; 
stroke-linecap:round; stroke-linejoin:round;fill:none"
d="M 37500.000000,13000.000000
38500.000000,13000.000000
38500.000000,13200.000000
" /> 
<path style="fill:#840000; fill-opacity:0.0; 
stroke:#840000; stroke-width:100.000000; stroke-opacity:1; 
stroke-linecap:round; stroke-linejoin:round;fill:none"
d="M 37500.000000,14000.000000
38500.000000,14000.000000
38000.000000,13000.000000
Z" /> 
</g>
<g style="fill:#840000; fill-opacity:0.0; 
stroke:#840000; stroke-width:60.000000; stroke-opacity:1; 
stroke-linecap:round; stroke-linejoin:round;">
<path d="M38000 13000
L38000 12000
" />
<path d="M38000 14000
L38000 15000
" />
</g>
<g style="fill:#006464; fill-opacity:0.0; 
stroke:#006464; stroke-width:60.000000; stroke-opacity:1; 
stroke-linecap:round; stroke-linejoin:round;">
<text x="39519.330709" y="13249.921260"
textLength="1036.181102" font-size="666.653543" lengthAdjust="spacingAndGlyphs"
text-anchor="middle" opacity="0">D5</text>
<g class="stroked-text"><desc>D5</desc>
<path d="M39150 13226
L39150 12726
L39269 12726
L39340 12749
L39388 12797
L39412 12845
L39435 12940
L39435 13011
L39412 13107
L39388 13154
L39340 13202
L39269 13226
L39150 13226
" />
<path d="M39888 12726
L39650 12726
L39626 12964
L39650 12940
L39697 12916
L39816 12916
L39864 12940
L39888 12964
L39912 13011
L39912 13130
L39888 13178
L39864 13202
L39816 13226
L39697 13226
L39650 13202
L39626 13178
" />
</g><text x="40733.622047" y="14249.921260"
textLength="3464.763780" font-size="666.653543" lengthAdjust="spacingAndGlyphs"
text-anchor="middle" opacity="0">1N5231B</text>
<g class="stroked-text"><desc>1N5231B</desc>
<path d="M39412 14226
L39126 14226
" />
<path d="M39269 14226
L39269 13726
L39221 13797
L39174 13845
L39126 13868
" />
<path d="M39626 14226
L39626 13726
L39912 14226
L39912 13726
" />
<path d="M40388 13726
L40150 13726
L40126 13964
L40150 13940
L40197 13916
L40316 13916
L40364 13940
L40388 13964
L40412 14011
L40412 14130
L40388 14178
L40364 14202
L40316 14226
L40197 14226
L40150 14202
L40126 14178
" />
<path d="M40602 13773
L40626 13749
L40674 13726
L40793 13726
L40840 13749
L40864 13773
L40888 13821
L40888 13868
L40864 13940
L40578 14226
L40888 14226
" />
<path d="M41055 13726
L41364 13726
L41197 13916
L41269 13916
L41316 13940
L41340 13964
L41364 14011
L41364 14130
L41340 14178
L41316 14202
L41269 14226
L41126 14226
L41078 14202
L41055 14178
" />
<path d="M41840 14226
L41555 14226
" />
<path d="M41697 14226
L41697 13726
L41650 13797
L41602 13845
L41555 13868
" />
<path d="M42221 13964
L42293 13987
L42316 14011
L42340 14059
L42340 14130
L42316 14178
L42293 14202
L42245 14226
L42055 14226
L42055 13726
L42221 13726
L42269 13749
L42293 13773
L42316 13821
L42316 13868
L42293 13916
L42269 13940
L42221 13964
L42055 13964
" />
</g></g>
</g>
<g style="fill:#006464; fill-opacity:0.0; 
stroke:#006464; stroke-width:60.000000; stroke-opacity:1; 
stroke-linecap:round; stroke-linejoin:round;">
<g >
</g>
<g style="fill:#840000; fill-opacity:0.0; 
stroke:#840000; stroke-width:60.000000; stroke-opacity:1; 
stroke-linecap:round; stroke-linejoin:round;">
</g>
<g style="fill:#840000; fill-opacity:0.0; 
stroke:#840000; stroke-width:100.000000; stroke-opacity:1; 
stroke-linecap:round; stroke-linejoin:round;">
<rect x="42600.000000" y="12500.000000" width="800.000000" height="2000.000000" rx="0.000000" />
</g>
<g style="fill:#840000; fill-opacity:0.0; 
stroke:#840000; stroke-width:60.000000; stroke-opacity:1; 
stroke-linecap:round; stroke-linejoin:round;">
<path d="M43000 12500
L43000 12000
" />
<path d="M43000 14500
L43000 15000
" />
</g>
<g style="fill:#006464; fill-opacity:0.0; 
stroke:#006464; stroke-width:60.000000; stroke-opacity:1; 
stroke-linecap:round; stroke-linejoin:round;">
<text x="44519.330709" y="13249.921260"
textLength="1036.181102" font-size="666.653543" lengthAdjust="spacingAndGlyphs"
text-anchor="middle" opacity="0">R2</text>
<g class="stroked-text"><desc>R2</desc>
<path d="M44435 13226
L44269 12987
" />
<path d="M44150 13226
L44150 12726
L44340 12726
L44388 12749
L44412 12773
L44435 12821
L44435 12892
L44412 12940
L44388 12964
L44340 12987
L44150 12987
" />
<path d="M44626 12773
L44650 12749
L44697 12726
L44816 12726
L44864 12749
L44888 12773
L44912 12821
L44912 12868
L44888 12940
L44602 13226
L44912 13226
" />
</g><text x="44281.259843" y="14249.921260"
textLength="560.000000" font-size="666.653543" lengthAdjust="spacingAndGlyphs"
text-anchor="middle" opacity="0">R</text>
<g class="stroked-text"><desc>R</desc>
<path d="M44435 14226
L44269 13987
" />
<path d="M44150 14226
L44150 13726
L44340 13726
L44388 13749
L44412 13773
L44435 13821
L44435 13892
L44412 13940
L44388 13964
L44340 13987
L44150 13987
" />
</g></g>
</g>
<g style="fill:#006464; fill-opacity:0.0; 
stroke:#006464; stroke-width:60.000000; stroke-opacity:1; 
stroke-linecap:round; stroke-linejoin:round;">
<g >
</g>
<g style="fill:#840000; fill-opacity:0.0; 
stroke:#840000; stroke-width:60.000000; stroke-opacity:1; 
stroke-linecap:round; stroke-linejoin:round;">
<path style="fill:#840000; fill-opacity:0.0; 
stroke:#840000; stroke-width:60.000000; stroke-opacity:1; 
stroke-linecap:round; stroke-linejoin:round;fill:none"
d="M 43000.000000,15500.000000
43000.000000,16000.000000
43500.000000,16000.000000
43000.000000,16500.000000
42500.000000,16000.000000
43000.000000,16000.000000
" /> 
</g>
<g style="fill:#006464; fill-opacity:0.0; 
stroke:#006464; stroke-width:60.000000; stroke-opacity:1; 
stroke-linecap:round; stroke-linejoin:round;">
<text x="43000.000000" y="17249.960630"
textLength="1583.818898" font-size="666.653543" lengthAdjust="spacingAndGlyphs"
text-anchor="middle" opacity="0">GND</text>
<g class="stroked-text"><desc>GND</desc>
<path d="M42619 16749
L42571 16726
L42500 16726
L42428 16749
L42380 16797
L42357 16845
L42333 16940
L42333 17011
L42357 17107
L42380 17154
L42428 17202
L42500 17226
L42547 17226
L42619 17202
L42642 17178
L42642 17011
L42547 17011
" />
<path d="M42857 17226
L42857 16726
L43142 17226
L43142 16726
" />
<path d="M43380 17226
L43380 16726
L43500 16726
L43571 16749
L43619 16797
L43642 16845
L43666 16940
L43666 17011
L43642 17107
L43619 17154
L43571 17202
L43500 17226
L43380 17226
" />
</g></g>
</g>
<g style="fill:#006464; fill-opacity:0.0; 
stroke:#006464; stroke-width:62.519685; stroke-opacity:1; 
stroke-linecap:round; stroke-linejoin:round;">
</g>
<g style="fill:#006464; fill-opacity:0.0; 
stroke:#006464; stroke-width:60.000000; stroke-opacity:1; 
stroke-linecap:round; stroke-linejoin:round;">
</g>
<g style="fill:#840000; fill-opacity:0.0; 
stroke:#840000; stroke-width:60.000000; stroke-opacity:1; 
stroke-linecap:round; stroke-linejoin:round;">
<text x="24437.480315" y="16285.748031"
textLength="964.763780" font-size="666.653543" lengthAdjust="spacingAndGlyphs"
text-anchor="end" opacity="0">V1</text>
<g class="stroked-text"><desc>V1</desc>
<path d="M23550 15761
L23716 16261
L23883 15761
" />
<path d="M24312 16261
L24026 16261
" />
<path d="M24169 16261
L24169 15761
L24121 15833
L24074 15880
L24026 15904
" />
</g><path style="fill:#840000; fill-opacity:0.0; 
stroke:#840000; stroke-width:60.000000; stroke-opacity:1; 
stroke-linecap:round; stroke-linejoin:round;fill:none"
d="M 25000.000000,16000.000000
24562.480315,15499.842520
23157.519685,15499.842520
23157.519685,16000.000000
23157.519685,16500.157480
24562.480315,16500.157480
Z" /> 
</g>
<g style="fill:#840000; fill-opacity:0.0; 
stroke:#840000; stroke-width:62.519685; stroke-opacity:1; 
stroke-linecap:round; stroke-linejoin:round;">
</g>
<g style="fill:#840000; fill-opacity:0.0; 
stroke:#840000; stroke-width:60.000000; stroke-opacity:1; 
stroke-linecap:round; stroke-linejoin:round;">
<g transform="rotate(-90.000000 20035.748031 18562.519685)">
<text x="20035.748031" y="18812.519685"
textLength="967.283465" font-size="666.653543" lengthAdjust="spacingAndGlyphs"
text-anchor="end" opacity="0">V2</text>
</g>
<g class="stroked-text"><desc>V2</desc>
<path d="M19761 19449
L20261 19282
L19761 19116
" />
<path d="M19809 18973
L19785 18949
L19761 18902
L19761 18782
L19785 18735
L19809 18711
L19857 18687
L19904 18687
L19976 18711
L20261 18997
L20261 18687
" />
</g><path style="fill:#840000; fill-opacity:0.0; 
stroke:#840000; stroke-width:60.000000; stroke-opacity:1; 
stroke-linecap:round; stroke-linejoin:round;fill:none"
d="M 20000.000000,18000.000000
19499.842520,18437.519685
19499.842520,19842.480315
20000.000000,19842.480315
20500.157480,19842.480315
20500.157480,18437.519685
Z" /> 
</g>
<g style="fill:#840000; fill-opacity:0.0; 
stroke:#840000; stroke-width:62.519685; stroke-opacity:1; 
stroke-linecap:round; stroke-linejoin:round;">
</g>
<g style="fill:#840000; fill-opacity:0.0; 
stroke:#840000; stroke-width:60.000000; stroke-opacity:1; 
stroke-linecap:round; stroke-linejoin:round;">
<text x="10437.480315" y="11785.748031"
textLength="2300.629921" font-size="666.653543" lengthAdjust="spacingAndGlyphs"
text-anchor="end" opacity="0">Vmain</text>
<g class="stroked-text"><desc>Vmain</desc>
<path d="M8216 11261
L8383 11761
L8550 11261
" />
<path d="M8716 11761
L8716 11428
" />
<path d="M8716 11476
L8740 11452
L8788 11428
L8859 11428
L8907 11452
L8931 11500
L8931 11761
" />
<path d="M8931 11500
L8955 11452
L9002 11428
L9074 11428
L9121 11452
L9145 11500
L9145 11761
" />
<path d="M9597 11761
L9597 11500
L9574 11452
L9526 11428
L9431 11428
L9383 11452
" />
<path d="M9597 11738
L9550 11761
L9431 11761
L9383 11738
L9359 11690
L9359 11642
L9383 11595
L9431 11571
L9550 11571
L9597 11547
" />
<path d="M9836 11761
L9836 11428
" />
<path d="M9836 11261
L9812 11285
L9836 11309
L9859 11285
L9836 11261
L9836 11309
" />
<path d="M10074 11428
L10074 11761
" />
<path d="M10074 11476
L10097 11452
L10145 11428
L10216 11428
L10264 11452
L10288 11500
L10288 11761
" />
</g><path style="fill:#840000; fill-opacity:0.0; 
stroke:#840000; stroke-width:60.000000; stroke-opacity:1; 
stroke-linecap:round; stroke-linejoin:round;fill:none"
d="M 11000.000000,11500.000000
10562.480315,10999.842520
7824.173228,10999.842520
7824.173228,11500.000000
7824.173228,12000.157480
10562.480315,12000.157480
Z" /> 
</g>
<g style="fill:#840000; fill-opacity:0.0; 
stroke:#840000; stroke-width:62.519685; stroke-opacity:1; 
stroke-linecap:round; stroke-linejoin:round;">
</g>
<g style="fill:#840000; fill-opacity:0.0; 
stroke:#840000; stroke-width:60.000000; stroke-opacity:1; 
stroke-linecap:round; stroke-linejoin:round;">
<g transform="rotate(-90.000000 20035.748031 8437.480315)">
<text x="20035.748031" y="8687.480315"
textLength="967.283465" font-size="666.653543" lengthAdjust="spacingAndGlyphs"
text-anchor="start" opacity="0">V1</text>
</g>
<g class="stroked-text"><desc>V1</desc>
<path d="M19761 8359
L20261 8193
L19761 8026
" />
<path d="M20261 7597
L20261 7883
" />
<path d="M20261 7740
L19761 7740
L19833 7788
L19880 7836
L19904 7883
" />
</g><path style="fill:#840000; fill-opacity:0.0; 
stroke:#840000; stroke-width:60.000000; stroke-opacity:1; 
stroke-linecap:round; stroke-linejoin:round;fill:none"
d="M 20000.000000,9000.000000
20500.157480,8562.480315
20500.157480,7157.519685
20000.000000,7157.519685
19499.842520,7157.519685
19499.842520,8562.480315
Z" /> 
</g>
<g style="fill:#840000; fill-opacity:0.0; 
stroke:#840000; stroke-width:62.519685; stroke-opacity:1; 
stroke-linecap:round; stroke-linejoin:round;">
</g>
<g style="fill:#840000; fill-opacity:0.0; 
stroke:#840000; stroke-width:60.000000; stroke-opacity:1; 
stroke-linecap:round; stroke-linejoin:round;">
<text x="24437.480315" y="11285.748031"
textLength="967.283465" font-size="666.653543" lengthAdjust="spacingAndGlyphs"
text-anchor="end" opacity="0">V2</text>
<g class="stroked-text"><desc>V2</desc>
<path d="M23550 10761
L23716 11261
L23883 10761
" />
<path d="M24026 10809
L24050 10785
L24097 10761
L24216 10761
L24264 10785
L24288 10809
L24312 10857
L24312 10904
L24288 10976
L24002 11261
L24312 11261
" />
</g><path style="fill:#840000; fill-opacity:0.0; 
stroke:#840000; stroke-width:60.000000; stroke-opacity:1; 
stroke-linecap:round; stroke-linejoin:round;fill:none"
d="M 25000.000000,11000.000000
24562.480315,10499.842520
23157.519685,10499.842520
23157.519685,11000.000000
23157.519685,11500.157480
24562.480315,11500.157480
Z" /> 
</g>
<g style="fill:#009600; fill-opacity:0.0; 
stroke:#009600; stroke-width:60.000000; stroke-opacity:1; 
stroke-linecap:round; stroke-linejoin:round;">
<path d="M19500 17500
L20000 17500
" />
<path d="M20000 17500
L25500 17500
" />
<path d="M25000 16000
L25500 16000
" />
<path d="M25000 11000
L25500 11000
" />
<path d="M35000 15000
L35000 15500
" />
<path d="M35000 11500
L38000 11500
" />
<path d="M35000 11500
L35000 12000
" />
<path d="M11000 15500
L11500 15500
" />
<path d="M11000 11500
L11500 11500
" />
<path d="M20000 9000
L20000 9500
" />
<path d="M28500 16000
L30000 16000
" />
<path d="M28500 17500
L30000 17500
" />
<path d="M30000 16000
L30000 17500
" />
<path d="M30000 11500
L31500 11500
" />
<path d="M20000 9500
L25500 9500
" />
<path d="M31500 11500
L35000 11500
" />
<path d="M31500 15000
L31500 15500
" />
<path d="M30000 11500
L30000 16000
" />
<path d="M19500 14500
L20000 14500
" />
<path d="M31500 11500
L31500 12000
" />
<path d="M28500 9500
L30000 9500
" />
<path d="M28500 11000
L30000 11000
" />
<path d="M30000 11000
L30000 9500
" />
<path d="M30000 11000
L30000 11500
" />
<path d="M20000 13500
L20000 14500
" />
<path d="M20000 13500
L20500 13500
" />
<path d="M20000 12500
L20000 13500
" />
<path d="M38000 11500
L38000 12000
" />
<path d="M19500 12500
L20000 12500
" />
<path d="M38000 11500
L43000 11500
" />
<path d="M38000 15000
L38000 15500
" />
<path d="M19500 9500
L20000 9500
" />
<path d="M20000 17500
L20000 18000
" />
<path d="M43000 15000
L43000 15500
" />
<path d="M43000 11500
L43000 12000
" />
</g>
<g style="fill:#009600; fill-opacity:1.0; 
stroke:#009600; stroke-width:60.000000; stroke-opacity:1; 
stroke-linecap:round; stroke-linejoin:round;">
<circle cx="20000.000000" cy="13500.000000" r="180.000000" /> 
<circle cx="20000.000000" cy="9500.000000" r="180.000000" /> 
<circle cx="20000.000000" cy="17500.000000" r="180.000000" /> 
<circle cx="38000.000000" cy="11500.000000" r="180.000000" /> 
<circle cx="35000.000000" cy="11500.000000" r="180.000000" /> 
<circle cx="30000.000000" cy="16000.000000" r="180.000000" /> 
<circle cx="31500.000000" cy="11500.000000" r="180.000000" /> 
<circle cx="30000.000000" cy="11000.000000" r="180.000000" /> 
<circle cx="30000.000000" cy="11500.000000" r="180.000000" /> 
</g> 
</svg>
